<?xml version="1.0" encoding="UTF-8" standalone="no"?>
<!-- Created with Inkscape (http://www.inkscape.org/) -->

<svg
   width="135.46667mm"
   height="135.46667mm"
   viewBox="0 0 135.46667 135.46667"
   version="1.1"
   id="svg1"
   xml:space="preserve"
   inkscape:export-filename="circle-xmark-solid.svg"
   inkscape:export-xdpi="96"
   inkscape:export-ydpi="96"
   inkscape:version="1.3.2 (091e20e, 2023-11-25, custom)"
   sodipodi:docname="circle-xmark-solid.svg"
   xmlns:inkscape="http://www.inkscape.org/namespaces/inkscape"
   xmlns:sodipodi="http://sodipodi.sourceforge.net/DTD/sodipodi-0.dtd"
   xmlns="http://www.w3.org/2000/svg"
   xmlns:svg="http://www.w3.org/2000/svg"><sodipodi:namedview
     id="namedview1"
     pagecolor="#505050"
     bordercolor="#eeeeee"
     borderopacity="1"
     inkscape:showpageshadow="0"
     inkscape:pageopacity="0"
     inkscape:pagecheckerboard="0"
     inkscape:deskcolor="#d1d1d1"
     inkscape:document-units="mm"
     inkscape:zoom="0.45700758"
     inkscape:cx="229.75549"
     inkscape:cy="368.70286"
     inkscape:window-width="1366"
     inkscape:window-height="705"
     inkscape:window-x="-8"
     inkscape:window-y="-8"
     inkscape:window-maximized="1"
     inkscape:current-layer="layer1" /><defs
     id="defs1" /><g
     inkscape:label="Layer 1"
     inkscape:groupmode="layer"
     id="layer1"
     transform="translate(-44.003503,-50.950876)"><path
       d="m 111.73684,186.41755 a 67.733337,67.733337 0 1 0 0,-135.466674 67.733337,67.733337 0 1 0 0,135.466674 z M 90.305592,97.252959 c 2.487084,-2.487083 6.50875,-2.487083 8.969375,0 L 111.71038,109.68838 124.1458,97.252959 c 2.48708,-2.487083 6.50875,-2.487083 8.96938,0 2.46062,2.487084 2.48708,6.508751 0,8.969371 l -12.43542,12.43542 12.43542,12.43542 c 2.48708,2.48708 2.48708,6.50875 0,8.96937 -2.48709,2.46063 -6.50875,2.48709 -8.96938,0 l -12.43542,-12.43541 -12.435413,12.43541 c -2.487083,2.48709 -6.50875,2.48709 -8.969375,0 -2.460625,-2.48708 -2.487083,-6.50875 0,-8.96937 L 102.74101,118.65775 90.305592,106.22233 c -2.487083,-2.48708 -2.487083,-6.508746 0,-8.969371 z"
       id="path1"
       style="fill:#ffffff;stroke-width:0.264583" /></g></svg>
